<svg width="224" height="152" viewBox="0 0 224 152" fill="none" xmlns="http://www.w3.org/2000/svg">
<rect x="5" y="5" width="214" height="142" rx="15" stroke="#A525BA" stroke-width="10"/>
<g filter="url(#filter0_d)">
<path d="M39.9411 67H48.0547L54.3445 45.8295H54.6172L60.907 67H69.0376L79.1797 32.0909H69.8729L64.5888 55.017H64.299L58.282 32.0909H50.6797L44.6626 54.9659H44.3729L39.1058 32.0909H29.782L39.9411 67ZM91.103 32.0909H82.6655V67H91.103V32.0909ZM115.269 42.5568H123.349C123.281 36.0284 118.082 31.6136 109.968 31.6136C101.991 31.6136 96.2464 35.9602 96.2976 42.4545C96.2805 47.7557 99.9964 50.7386 106.031 52.1193L109.678 52.9716C113.513 53.858 115.235 54.8977 115.269 56.858C115.235 58.9886 113.241 60.4716 109.849 60.4716C106.116 60.4716 103.661 58.733 103.474 55.375H95.3942C95.4964 63.5398 101.173 67.4432 109.951 67.4432C118.644 67.4432 123.792 63.5057 123.826 56.875C123.792 51.3011 120.025 47.892 113.138 46.375L110.138 45.6932C106.968 45.0114 104.957 43.9545 105.025 41.875C105.042 39.9659 106.678 38.5852 109.951 38.5852C113.241 38.5852 115.048 40.0682 115.269 42.5568ZM128.087 67H152.428V60.1477H136.525V52.9716H151.184V46.1023H136.525V38.9432H152.428V32.0909H128.087V67Z" fill="#A525BA"/>
</g>
<g filter="url(#filter1_d)">
<path d="M180.004 68.7794C179.392 68.9434 178.656 68.9064 177.796 68.6684C176.948 68.4741 176.011 68.0809 174.985 67.4889C173.96 66.8969 173.078 66.1845 172.339 65.3517C171.601 64.5188 171.277 63.3524 171.367 61.8525L172.099 51.0795C172.18 49.9804 172.269 48.9607 172.369 48.0205C172.484 47.0525 172.636 45.9577 172.824 44.7361L172.551 44.6336C171.798 46.1941 170.973 47.7503 170.077 49.3022C169.209 50.8702 168.343 52.4024 167.479 53.8989L163.759 60.3421C163.406 60.2492 162.887 60.0604 162.201 59.7755C161.543 59.5066 160.91 59.1962 160.3 58.8442C159.69 58.4922 159.174 58.1386 158.751 57.7835C158.328 57.4284 158.036 57.0381 157.875 56.6127C157.714 56.1872 157.671 55.7187 157.744 55.207C157.834 54.6676 158.079 54.0515 158.479 53.3587L170.479 32.5741C171.187 32.2438 172.023 32.1721 172.986 32.359C173.95 32.5459 174.889 32.9033 175.804 33.4313C176.829 34.0233 177.703 34.7496 178.426 35.6101C179.192 36.459 179.524 37.6115 179.422 39.0677L178.731 49.8647C178.651 50.9638 178.553 51.9973 178.438 52.9653C178.338 53.9055 178.194 54.9865 178.006 56.2081L178.238 56.2866C178.991 54.7261 179.786 53.1896 180.622 51.6771C181.459 50.1646 182.309 48.6601 183.173 47.1636L187.061 40.4294C187.414 40.5223 187.919 40.7031 188.577 40.972C189.262 41.2569 189.909 41.5753 190.519 41.9273C191.739 42.6313 192.539 43.389 192.92 44.2004C193.318 44.9841 193.124 46.0549 192.34 47.4128L180.004 68.7794Z" fill="#A525BA"/>
</g>
<g filter="url(#filter2_d)">
<path d="M38.6811 120H54.3459C62.0675 120 66.4993 115.875 66.4993 110.233C66.4993 105.188 62.8345 102.017 58.6072 101.83V101.489C62.4425 100.688 65.1357 97.9091 65.1357 93.9205C65.1357 88.6534 61.0788 85.0909 53.2379 85.0909H38.6811V120ZM47.1186 113.199V104.881H52.4879C55.7095 104.881 57.6868 106.585 57.6868 109.261C57.6868 111.733 55.9822 113.199 52.3345 113.199H47.1186ZM47.1186 99.4432V91.7898H51.9254C54.7379 91.7898 56.5277 93.2386 56.5277 95.5568C56.5277 98.0114 54.5504 99.4432 51.7891 99.4432H47.1186ZM103.505 102.545C103.505 91.0057 96.2095 84.6136 86.8345 84.6136C77.4254 84.6136 70.1811 91.0057 70.1811 102.545C70.1811 114.034 77.4254 120.477 86.8345 120.477C96.2095 120.477 103.505 114.085 103.505 102.545ZM94.88 102.545C94.88 109.381 91.88 113.08 86.8345 113.08C81.8061 113.08 78.7891 109.381 78.7891 102.545C78.7891 95.7102 81.8061 92.0114 86.8345 92.0114C91.88 92.0114 94.88 95.7102 94.88 102.545ZM141.38 102.545C141.38 91.0057 134.085 84.6136 124.71 84.6136C115.3 84.6136 108.056 91.0057 108.056 102.545C108.056 114.034 115.3 120.477 124.71 120.477C134.085 120.477 141.38 114.085 141.38 102.545ZM132.755 102.545C132.755 109.381 129.755 113.08 124.71 113.08C119.681 113.08 116.664 109.381 116.664 102.545C116.664 95.7102 119.681 92.0114 124.71 92.0114C129.755 92.0114 132.755 95.7102 132.755 102.545ZM146.306 85.0909V120H154.522V98.4375H154.812L163.198 119.778H168.448L176.835 98.5568H177.124V120H185.34V85.0909H174.891L166.028 106.705H165.619L156.755 85.0909H146.306Z" fill="#A525BA"/>
</g>
<defs>
<filter id="filter0_d" x="25.782" y="31.6136" width="130.646" height="43.8295" filterUnits="userSpaceOnUse" color-interpolation-filters="sRGB">
<feFlood flood-opacity="0" result="BackgroundImageFix"/>
<feColorMatrix in="SourceAlpha" type="matrix" values="0 0 0 0 0 0 0 0 0 0 0 0 0 0 0 0 0 0 127 0"/>
<feOffset dy="4"/>
<feGaussianBlur stdDeviation="2"/>
<feColorMatrix type="matrix" values="0 0 0 0 0 0 0 0 0 0 0 0 0 0 0 0 0 0 0.25 0"/>
<feBlend mode="normal" in2="BackgroundImageFix" result="effect1_dropShadow"/>
<feBlend mode="normal" in="SourceGraphic" in2="effect1_dropShadow" result="shape"/>
</filter>
<filter id="filter1_d" x="153.71" y="32.2577" width="43.4113" height="44.6221" filterUnits="userSpaceOnUse" color-interpolation-filters="sRGB">
<feFlood flood-opacity="0" result="BackgroundImageFix"/>
<feColorMatrix in="SourceAlpha" type="matrix" values="0 0 0 0 0 0 0 0 0 0 0 0 0 0 0 0 0 0 127 0"/>
<feOffset dy="4"/>
<feGaussianBlur stdDeviation="2"/>
<feColorMatrix type="matrix" values="0 0 0 0 0 0 0 0 0 0 0 0 0 0 0 0 0 0 0.25 0"/>
<feBlend mode="normal" in2="BackgroundImageFix" result="effect1_dropShadow"/>
<feBlend mode="normal" in="SourceGraphic" in2="effect1_dropShadow" result="shape"/>
</filter>
<filter id="filter2_d" x="34.6811" y="84.6136" width="154.659" height="43.8636" filterUnits="userSpaceOnUse" color-interpolation-filters="sRGB">
<feFlood flood-opacity="0" result="BackgroundImageFix"/>
<feColorMatrix in="SourceAlpha" type="matrix" values="0 0 0 0 0 0 0 0 0 0 0 0 0 0 0 0 0 0 127 0"/>
<feOffset dy="4"/>
<feGaussianBlur stdDeviation="2"/>
<feColorMatrix type="matrix" values="0 0 0 0 0 0 0 0 0 0 0 0 0 0 0 0 0 0 0.25 0"/>
<feBlend mode="normal" in2="BackgroundImageFix" result="effect1_dropShadow"/>
<feBlend mode="normal" in="SourceGraphic" in2="effect1_dropShadow" result="shape"/>
</filter>
</defs>
</svg>
